<?xml version="1.0" encoding="utf-8"?>
<!-- Svg Vector Icons : http://www.onlinewebfonts.com/icon -->
<!DOCTYPE svg PUBLIC "-//W3C//DTD SVG 1.1//EN" "http://www.w3.org/Graphics/SVG/1.1/DTD/svg11.dtd">
<svg version="1.1" xmlns="http://www.w3.org/2000/svg" xmlns:xlink="http://www.w3.org/1999/xlink" x="0px" y="0px" viewBox="0 0 1000 1000" enable-background="new 0 0 1000 1000" xml:space="preserve">
<metadata> Svg Vector Icons : http://www.onlinewebfonts.com/icon </metadata>
<g><path fill="white" d="M150.9,745c0-12.3-6.1-18.4-12.3-24.5s-12.3-12.3-24.5-12.3s-18.4,6.1-24.5,12.3S77.4,732.8,77.4,745s6.1,18.4,12.3,24.5s12.3,12.3,24.5,12.3s18.4-6.1,24.5-12.3S150.9,751.1,150.9,745z M922.6,426.5c0-18.4-6.1-36.8-18.4-49c-12.3-12.3-36.8-18.4-55.1-18.4H536.8c0-6.1,0-18.4,6.1-24.5c6.1-12.2,12.3-24.5,18.4-36.8c6.1-6.1,12.3-18.4,18.4-36.7c6.1-18.4,6.1-30.6,6.1-49c0-24.5-6.1-42.9-24.5-55.1c-18.4-12.3-36.8-12.3-61.3-12.3c-6.1,0-24.5,24.5-49,73.5c-6.1,18.4-18.4,30.6-18.4,42.9c-12.2,24.5-36.7,49-61.3,79.6c-30.6,24.5-49,49-55.1,55.1c-24.5,18.4-55.1,30.6-79.6,30.6h-18.4v349.1h18.4c24.5,0,55.1,6.1,91.9,18.4s67.4,24.5,104.1,36.8c36.8,12.3,67.4,18.4,98,18.4c67.4,0,104.1-30.6,104.1-91.9c0-12.3,0-18.4,0-30.6c12.3-6.1,18.4-18.4,24.5-30.6s12.3-24.5,12.3-42.9s-6.1-24.5-12.3-36.8c18.4-18.4,30.6-42.9,30.6-67.4c0-6.1,0-18.4-6.1-30.6s-12.3-12.3-12.3-18.4h183.8c18.4,0,36.8-6.1,49-18.4C916.5,469.4,922.6,444.9,922.6,426.5L922.6,426.5z M990,426.5c0,36.8-12.3,73.5-42.9,98c-24.5,30.6-61.3,42.9-98,42.9h-91.9c0,24.5-6.1,42.9-18.4,67.4c0,6.1,0,18.4,0,24.5c0,36.8-12.3,67.4-30.6,98c0,49-12.3,91.9-49,122.5c-30.6,30.6-73.5,42.9-122.5,42.9s-110.3-12.3-177.6-36.8c-61.3-24.5-98-30.6-122.5-30.6H77.4c-18.4,0-36.8-6.1-49-18.4S10,794,10,775.6V426.5c0-18.4,6.1-36.8,18.4-49c12.3-12.3,30.6-18.4,49-18.4h159.3c6.1,0,6.1,0,12.3,0s6.1-6.1,12.3-12.2s6.1-6.1,12.3-12.3c6.1,0,12.3-6.1,12.3-12.2c6.1,0,12.3-6.1,12.3-6.1s6.1-6.1,12.2-12.3c6.1-6.1,6.1-12.2,6.1-12.2c24.5-24.5,42.9-49,55.1-73.5c6.1-6.1,12.3-18.4,18.4-30.6c6.1-12.3,12.2-30.6,18.4-36.8c6.1-6.1,12.3-24.5,24.5-36.8c12.3-12.2,18.4-18.4,30.6-24.5c12.3-6.1,24.5-12.2,36.8-12.2c42.9,0,85.8,12.2,110.3,36.7c24.5,24.5,42.9,61.3,42.9,104.1c0,24.5-6.1,49-12.3,67.4H843c36.8,0,73.5,12.2,98,42.9S990,389.7,990,426.5L990,426.5z"/></g>
</svg>