<svg width="350" height="350" xmlns="http://www.w3.org/2000/svg"><g stroke="null"><path d="M1.543 112.526v121.262l173.659 115.488V228.014L1.543 112.526z" fill="#4188cc"/><path d="M348.86 112.526v121.262L175.202 349.276V228.014L348.86 112.526z" fill="#499ae5"/><path d="M175.202 2.812L1.543 112.526l173.659 115.488L348.86 112.526 175.202 2.812z" fill="#49a0ed"/><path d="M124.551 34.572v21.654c0 18.766 22.677 33.202 50.65 33.202s50.651-14.436 50.651-33.202V34.572h-101.3z" fill="#4188cc"/><path d="M124.551 34.572v21.654c0 18.766 22.677 33.202 50.65 33.202V34.572h-50.65z" fill="#4188cc"/><path d="M225.852 35.293a50.65 32.48 0 1 1-101.3 0 50.65 32.48 0 1 1 101.3 0z" fill="#4ba3f4"/><path d="M218.616 92.315v21.654c0 18.767 22.677 33.203 50.65 33.203s50.651-14.436 50.651-33.203V92.315h-101.3z" fill="#4188cc"/><path d="M218.616 92.315v21.654c0 18.767 22.677 33.203 50.65 33.203V92.315h-50.65z" fill="#4188cc"/><path d="M319.917 93.037a50.65 32.48 0 1 1-101.3 0 50.65 32.48 0 1 1 101.3 0z" fill="#4ba3f4"/><path d="M30.486 85.097v21.654c0 18.767 22.677 33.203 50.65 33.203s50.651-14.436 50.651-33.203V85.097h-101.3z" fill="#4188cc"/><path d="M30.486 85.097v21.654c0 18.767 22.677 33.203 50.65 33.203V85.097h-50.65z" fill="#4188cc"/><path d="M131.787 85.82a50.65 32.48 0 1 1-101.3 0 50.65 32.48 0 1 1 101.3 0z" fill="#4ba3f4"/><path d="M124.551 142.841v21.654c0 18.767 22.677 33.203 50.65 33.203s50.651-14.436 50.651-33.203v-21.654h-101.3z" fill="#4188cc"/><path d="M124.551 142.841v21.654c0 18.767 22.677 33.203 50.65 33.203v-54.857h-50.65z" fill="#4188cc"/><path d="M225.852 143.563a50.65 32.48 0 1 1-101.3 0 50.65 32.48 0 1 1 101.3 0z" fill="#4ba3f4"/></g></svg>