<?xml version="1.0" encoding="UTF-8" standalone="no"?>
<!-- Created with Inkscape (http://www.inkscape.org/) -->

<svg
   xmlns:dc="http://purl.org/dc/elements/1.1/"
   xmlns:cc="http://creativecommons.org/ns#"
   xmlns:rdf="http://www.w3.org/1999/02/22-rdf-syntax-ns#"
   xmlns:svg="http://www.w3.org/2000/svg"
   xmlns="http://www.w3.org/2000/svg"
   xmlns:sodipodi="http://sodipodi.sourceforge.net/DTD/sodipodi-0.dtd"
   xmlns:inkscape="http://www.inkscape.org/namespaces/inkscape"
   width="563"
   height="731.35999"
   id="svg2"
   version="1.1"
   inkscape:version="0.48.2 r9819"
   sodipodi:docname="New document 1">
  <defs
     id="defs4" />
  <sodipodi:namedview
     id="base"
     pagecolor="#ffffff"
     bordercolor="#666666"
     borderopacity="1.0"
     inkscape:pageopacity="0.0"
     inkscape:pageshadow="2"
     inkscape:zoom="10.974297"
     inkscape:cx="533.68098"
     inkscape:cy="7.6847151"
     inkscape:document-units="px"
     inkscape:current-layer="layer1"
     showgrid="false"
     inkscape:window-width="1366"
     inkscape:window-height="706"
     inkscape:window-x="-8"
     inkscape:window-y="-8"
     inkscape:window-maximized="1" />
  <metadata
     id="metadata7">
    <rdf:RDF>
      <cc:Work
         rdf:about="">
        <dc:format>image/svg+xml</dc:format>
        <dc:type
           rdf:resource="http://purl.org/dc/dcmitype/StillImage" />
        <dc:title></dc:title>
      </cc:Work>
    </rdf:RDF>
  </metadata>
  <g
     inkscape:label="Layer 1"
     inkscape:groupmode="layer"
     id="layer1"
     transform="translate(0,-320.9968)">
    <g
       style="font-size:12px;font-style:normal;font-weight:normal;fill:white;fill-opacity:1;stroke:white;stroke-width:1;stroke-linecap:square;stroke-linejoin:miter;stroke-miterlimit:10;stroke-opacity:1;stroke-dasharray:none;stroke-dashoffset:0;font-family:Dialog"
       id="g2992"
       transform="translate(-26.74099,290.13539)">
      <g
         transform="matrix(2.7701136,0,0,2.7701136,-4.1354244,-172.22644)"
         id="g5">
        <g
           id="g7">
          <path
             style="stroke:none"
             inkscape:connector-curvature="0"
             id="path9"
             d="m 214.0312,330.3281 q 0,2.6719 -2.4609,4.6407 -2.4609,1.9687 -5.1328,1.9687 l -186.3281,0 q -2.8125,0 -5.6953,-2.1797 -2.8829,-2.1797 -2.8829,-4.9922 l 0,-136.5468 q 0,-2.1094 1.6876,-4.3594 1.6874,-2.25 3.6562,-2.25 l 27.9844,0 0,-54.5625 q 0,-10.125 3.9375,-21.2344 13.0781,-37.125 64.2656,-37.125 50.625,0 63.9844,37.125 4.0781,11.3906 4.0781,21.0937 l 0,54.7032 28.5469,0 q 2.1093,0 4.3593,5.625 l 0,138.0937 z m -44.4374,-143.8593 0,-57.375 q 0,-7.0313 -4.5704,-16.4532 -4.5703,-9.4218 -10.0546,-14.0625 -15.8907,-13.5 -41.9063,-13.5 -42.4687,0 -53.4375,29.8125 -3.2344,8.7188 -3.2344,14.3438 l 0,57.2344 4.9219,0 0,-50.4844 q 0,-14.9063 8.1563,-27.2813 8.4374,-12.9375 22.3593,-17.2969 7.1719,-2.25 10.125,-2.25 0.2813,0 0.5625,0.2813 -2.3906,1.2656 -5.3437,1.9687 -10.5469,2.6719 -20.5313,14.9063 -9.9844,12.2344 -9.9844,22.9219 0,0.8437 -0.3515,2.5312 -0.3516,1.6875 -0.3516,2.5313 l 0,52.1719 8.5781,0 0,-57.375 q 0,-6.8907 6.3985,-14.4844 6.3984,-7.5938 13.1484,-9.7032 10.9688,-3.375 18.9844,-3.375 26.4375,0 35.2969,18.1407 3.0937,6.3281 3.0937,9.5625 l 0,57.2344 4.9219,0 0,-53.7188 q 0,-10.5469 -7.3828,-19.8984 Q 141.6094,103.5 131.3438,100.4062 144,100.9688 153,112.0781 q 8.4375,10.5469 8.4375,23.625 l 0,50.7657 8.1563,0 z m -29.25,0 0,-55.5469 q 0,-5.625 -4.9922,-10.8985 -4.9922,-5.2734 -10.6172,-5.9765 -9.4219,-1.125 -11.6719,-1.125 -3.2344,0 -6.75,0.1406 -7.3125,0.2813 -13.7813,5.3437 -6.8906,5.625 -6.8906,12.6563 l 0,55.4063 54.7032,0 z m 62.1562,138.9374 0,-127.8281 -6.4688,0 0,127.8281 6.4688,0 z m -12.375,0 0,-127.8281 -167.0625,0 0,127.8281 167.0625,0 z m -59.3438,-85.3593 q 0,10.2656 -9.1406,14.9062 l 8.7188,48.0938 -34.5938,0 8.1563,-48.0938 q -8.2969,-3.9375 -8.2969,-14.9062 0,-7.3125 5.0625,-12.586 5.0625,-5.2734 12.375,-5.2734 7.1719,0 12.4453,5.3437 5.2734,5.3438 5.2734,12.5157 z" />
        </g>
      </g>
    </g>
  </g>
</svg>
