<svg viewBox="0 0 583.92999 160" version="1.1" id="Capa_1" xmlns="http://www.w3.org/2000/svg"
     xmlns:xlink="http://www.w3.org/1999/xlink" x="0px" y="0px">
    <style>
        svg {
        fill: #F2F2F2;
        }
        svg .label,
        svg .state-label {
        font-size: 20px;
        font-family: sans-serif;
        text-align: center;
        text-anchor: middle;
        }
        svg .state-label {
        font-size: 32px;
        fill: #009d81;
        }
        svg .joiner {
        fill: none;
        stroke: #009d81;
        stroke-width: 3.2;
        }
        svg .cross {
        fill: none;
        stroke: #da0000;
        stroke-width: 5.9;
        }
        .diagram-container {
        position: relative;
        margin-top: 1.4em;
        }
        .diagram-container svg {
        position: absolute;
        top: 0;
        left: 0;
        width: 100%;
        height: 100%;
        }
    </style>
    <defs>
        <path d="M125.558 122.652V76.668c0-2.123-1.72-3.844-3.843-3.844l-38.2 23.772 42.043 26.056zM39.07 72.825c-2.122 0-3.843 1.72-3.843 3.844v49.964c0 2.123 1.72 3.846 3.844 3.846h82.65c2.122 0 3.842-1.722 3.842-3.845l-86.49-53.81zm59.67-11.272c-1.97 7.728-8.96 13.45-17.303 13.45-8.342 0-15.33-5.723-17.3-13.45H43.614v10.294L80.26 94.393l36.804-21.83v-11.01H98.74zM81.437 42.78c-7.924 0-14.346 6.42-14.346 14.346 0 7.925 6.427 14.35 14.35 14.35s14.35-6.425 14.35-14.35S89.36 42.78 81.44 42.78zm1.85 22.158H80.08V53.813h-3.137v-2.09h.29c1.068 0 1.91-.202 2.527-.603.615-.4 1.003-1.046 1.167-1.935h2.36v15.753z"
              id="diagram-notification"></path>
        <path d="M105.74 133.947l-12.07-5.73c-1.36-.644-2.184-1.647-2.184-3.043v-.358c0-1.396.823-2.4 2.184-3.044l12.07-5.73c.427-.214.82-.357 1.324-.357 1.146-.035 2.184.967 2.184 2.256 0 1.04-.573 1.76-1.504 2.19l-10.814 4.83 10.814 4.834c.93.43 1.504 1.253 1.504 2.256 0 1.325-1.038 2.256-2.365 2.22-.392 0-.786-.143-1.144-.323zm6.803 5.373l14.002-29.257c.394-.823 1.038-1.253 1.898-1.253 1.146 0 2.112.967 2.112 2.04 0 .395-.143.79-.25 1.04l-14.002 29.255c-.394.823-1.038 1.253-1.898 1.253-1.146 0-2.112-.966-2.112-2.04 0-.395.142-.788.25-1.04zm25.067-23.277l12.067 5.73c1.36.644 2.184 1.647 2.184 3.043v.358c0 1.396-.82 2.4-2.18 3.043l-12.07 5.73c-.43.215-.82.358-1.323.358-1.146.035-2.184-.967-2.184-2.256 0-1.04.574-1.76 1.505-2.19l10.814-4.834-10.814-4.835c-.93-.43-1.504-1.252-1.504-2.255 0-1.326 1.04-2.257 2.365-2.22.392 0 .786.143 1.144.322zm31.91-27.436c0-1.866-1.513-3.377-3.38-3.377H76.08c-1.865 0-3.377 1.51-3.377 3.377v66.42c0 1.865 1.512 3.377 3.377 3.377h90.06c1.867 0 3.38-1.512 3.38-3.377v-66.42zm-74.865-.188c1.347 0 2.44 1.09 2.44 2.434s-1.092 2.44-2.44 2.44c-1.347 0-2.44-1.092-2.44-2.44 0-1.347 1.094-2.44 2.44-2.44zm-6.754 0c1.35 0 2.44 1.09 2.44 2.434s-1.09 2.44-2.44 2.44c-1.343 0-2.44-1.092-2.44-2.44 0-1.347 1.098-2.44 2.44-2.44zm-6.75 0c1.347 0 2.44 1.09 2.44 2.434s-1.092 2.44-2.44 2.44c-1.347 0-2.44-1.092-2.44-2.44 0-1.347 1.094-2.44 2.44-2.44zm83.87 65.48H77.21V97.61h87.81v56.29z"
              id="diagram-page"></path>
        <path d="M82.687 42.615c-2.388 0-4.733.18-7.023.53l-.2-.09c-.02.044-.034.09-.054.13-22.133 3.493-39.058 22.648-39.058 45.76 0 25.59 20.744 46.334 46.334 46.334 25.588 0 46.333-20.748 46.333-46.338 0-25.587-20.748-46.33-46.337-46.33zm-9.65 51.123c-.73-.364-1.508-.646-2.328-.818.06-5.917.52-11.804 1.384-17.586 2.722-.564 5.02-2.27 6.397-4.586 6.643 1.918 13.024 4.942 19.025 8.934-.155.473-.27.964-.35 1.465-8.557 2.602-16.684 6.85-24.132 12.59zM63.51 110.73c.83.522 1.744.92 2.72 1.174.694 5.234 1.7 10.388 3.016 15.44-4.677-1.643-8.967-4.114-12.688-7.24 2.177-3.334 4.502-6.46 6.95-9.374zm52.983-26.94c.295-.004.59-.016.885-.016 1.898 0 3.8.117 5.694.288.193 1.603.303 3.232.303 4.886 0 2.454-.23 4.854-.65 7.19-2.327-3.115-4.784-6.04-7.36-8.753.595-1.09.986-2.304 1.128-3.595zm5.457-5.498c-1.524-.102-3.05-.162-4.572-.162-.652 0-1.303.017-1.952.035-1.637-3.098-4.887-5.212-8.632-5.212-2.27 0-4.356.784-6.014 2.085-6.582-4.397-13.615-7.698-20.942-9.784-.158-2.962-1.63-5.567-3.85-7.25.987-3.267 2.103-6.473 3.358-9.595 1.103-.09 2.215-.15 3.34-.15 18.75 0 34.568 12.75 39.264 30.03zM72.895 49.458c-.797 2.164-1.534 4.363-2.213 6.59-.193-.012-.382-.03-.578-.03-4.28 0-7.907 2.757-9.224 6.59-3.272.002-6.54.26-9.782.73 5.488-6.755 13.093-11.72 21.797-13.88zm-30.897 39.49c0-6.878 1.72-13.36 4.745-19.044 4.578-1.056 9.248-1.624 13.93-1.644.787 3 2.958 5.434 5.797 6.575-.9 6.113-1.376 12.333-1.414 18.582-3.59 1.44-6.126 4.95-6.126 9.054 0 1.406.302 2.738.834 3.94-2.584 3.02-5.03 6.26-7.335 9.71-6.48-7.21-10.436-16.734-10.436-27.17zm40.69 40.688c-2.436 0-4.817-.227-7.136-.64-1.63-5.636-2.852-11.42-3.66-17.315 3.817-1.32 6.56-4.94 6.56-9.21 0-1.74-.46-3.37-1.26-4.783 6.46-4.862 13.437-8.518 20.757-10.858 1.55 3.332 4.92 5.65 8.84 5.65 1.63 0 3.16-.407 4.512-1.114 3.386 3.572 6.56 7.524 9.485 11.836-5.787 15.426-20.68 26.438-38.104 26.438z"
              id="diagram-network"></path>
        <path d="M66.496 72.76h41.74v41.74h-41.74V72.76zm69.566 0c1.275 0 2.318-1.04 2.318-2.32 0-1.28-1.043-2.318-2.318-2.318h-9.276v-4.638h9.276c1.275 0 2.318-1.038 2.318-2.318s-1.043-2.32-2.318-2.32h-9.276V56.53c0-1.28-1.043-2.32-2.32-2.32h-2.317v-9.274c0-1.28-1.05-2.32-2.32-2.32-1.28 0-2.32 1.04-2.32 2.32v9.275h-4.64V44.94c0-1.28-1.044-2.32-2.32-2.32-1.275 0-2.318 1.04-2.318 2.32v9.275h-4.638v-9.275c0-1.28-1.044-2.32-2.32-2.32-1.274 0-2.318 1.04-2.318 2.32v9.275H94.32v-9.277c0-1.28-1.044-2.32-2.32-2.32-1.275 0-2.318 1.04-2.318 2.32v9.275h-4.638v-9.275c0-1.28-1.04-2.32-2.32-2.32-1.28 0-2.318 1.04-2.318 2.32v9.275H75.77v-9.28c0-1.28-1.04-2.32-2.32-2.32-1.28 0-2.318 1.04-2.318 2.32v9.276h-4.638V44.93c0-1.28-1.038-2.32-2.318-2.32s-2.32 1.04-2.32 2.32v9.275H57.22V44.93c0-1.28-1.04-2.32-2.32-2.32s-2.32 1.04-2.32 2.32v9.274h-2.316c-1.28 0-2.32 1.038-2.32 2.318v2.32H38.67c-1.28 0-2.318 1.038-2.318 2.318s1.038 2.318 2.318 2.318h9.276v4.638H38.67c-1.28 0-2.318 1.04-2.318 2.32 0 1.28 1.038 2.318 2.318 2.318h9.276v4.637H38.67c-1.28 0-2.318 1.04-2.318 2.32 0 1.28 1.038 2.32 2.318 2.32h9.276v4.64H38.67c-1.28 0-2.318 1.04-2.318 2.32 0 1.28 1.038 2.317 2.318 2.317h9.276v4.638H38.67c-1.28 0-2.318 1.044-2.318 2.32 0 1.274 1.038 2.318 2.318 2.318h9.276v4.638H38.67c-1.28 0-2.318 1.045-2.318 2.32 0 1.276 1.038 2.32 2.318 2.32h9.276v4.64H38.67c-1.28 0-2.318 1.04-2.318 2.317 0 1.275 1.038 2.318 2.318 2.318h9.276v4.64H38.67c-1.28 0-2.318 1.043-2.318 2.32 0 1.273 1.038 2.317 2.318 2.317h9.276v2.32c0 1.274 1.04 2.318 2.32 2.318h2.317v9.275c0 1.275 1.04 2.32 2.32 2.32 1.28 0 2.318-1.045 2.318-2.32v-9.275h4.64v9.275c0 1.275 1.04 2.32 2.32 2.32s2.32-1.045 2.32-2.32v-9.275h4.638v9.275c0 1.275 1.04 2.32 2.32 2.32 1.28 0 2.318-1.045 2.318-2.32v-9.275h4.637v9.275c0 1.275 1.04 2.32 2.32 2.32s2.32-1.045 2.32-2.32v-9.275h4.636v9.275c0 1.275 1.042 2.32 2.32 2.32 1.273 0 2.317-1.045 2.317-2.32v-9.275h4.637v9.275c0 1.275 1.045 2.32 2.32 2.32s2.32-1.045 2.32-2.32v-9.275h4.637v9.275c0 1.275 1.044 2.32 2.32 2.32 1.275 0 2.32-1.045 2.32-2.32v-9.275h4.636v9.275c0 1.275 1.045 2.32 2.32 2.32 1.276 0 2.32-1.045 2.32-2.32v-9.275h2.318c1.276 0 2.32-1.044 2.32-2.32v-2.318h9.275c1.274 0 2.317-1.045 2.317-2.32s-1.042-2.32-2.317-2.32h-9.277v-4.64h9.276c1.273 0 2.316-1.04 2.316-2.316 0-1.276-1.042-2.32-2.317-2.32h-9.277v-4.637h9.277c1.276 0 2.32-1.043 2.32-2.32s-1.043-2.32-2.318-2.32h-9.276v-4.637h9.276c1.275 0 2.318-1.044 2.318-2.32 0-1.274-1.042-2.318-2.317-2.318h-9.277V91.31h9.276c1.274 0 2.317-1.038 2.317-2.318s-1.044-2.32-2.32-2.32h-9.275v-4.637h9.276c1.276 0 2.32-1.04 2.32-2.32 0-1.28-1.043-2.318-2.318-2.318h-9.275V72.76h9.276zm-23.19 44.058c0 1.275-1.042 2.318-2.318 2.318H64.178c-1.28 0-2.32-1.043-2.32-2.318V70.44c0-1.28 1.04-2.318 2.32-2.318h46.376c1.276 0 2.32 1.04 2.32 2.32v46.376z"
              id="diagram-sw"></path>
        <path d="M108.278 65.717c-1.32 0-2.573.21-3.84.388-4.86-8.59-13.847-14.33-24.046-14.33-10.415 0-19.402 5.806-24.194 14.29-1.227-.164-2.452-.348-3.69-.348-15.373 0-27.887 12.506-27.887 27.885 0 15.387 12.52 27.886 27.89 27.886h55.77c15.374 0 27.888-12.5 27.888-27.886 0-15.38-12.514-27.885-27.886-27.885zm0 41.828h-55.77c-7.693 0-13.944-6.256-13.944-13.943 0-7.645 6.766-13.54 13.956-13.752.028 3.29.6 6.516 1.742 9.565l13.06-4.888c-.587-1.544-.872-3.185-.872-4.867 0-7.687 6.25-13.943 13.942-13.943 4.508 0 8.593 2.233 11.152 5.712-6.727 5.09-11.152 13.09-11.152 22.17h13.943c0-7.69 6.25-13.945 13.943-13.945 7.692 0 13.943 6.256 13.943 13.942s-6.25 13.942-13.94 13.942z"
              id="diagram-cloud"></path>
        <path d="M124.43 46.652c-.07-2.23-1.943-4.037-4.176-4.037h-9.773s-23.56.524-31.42.52c-7.19-.007-28.754-.52-28.754-.52H40.53c-2.232 0-4.107 1.808-4.176 4.037-.072 2.237 1.698 4.06 3.944 4.06h3.058c.963 5.987 8.793 54.57 12.148 71.708.53 2.7 2.134 5.85 4.943 6.154 1.506.39 8.56 2.073 18.68 2.073 10.334 0 19.235-1.746 20.77-2.064 2.85-.247 4.49-3.428 5.034-6.153 3.438-17.2 11.51-65.79 12.498-71.716h3.063c2.244 0 4.015-1.825 3.944-4.062zm-20.523 4.222l-2.05 2.724c-.75-.87-1.502-1.753-2.253-2.643l4.303-.08zm-12.307.683c2.02 2.61 4.058 5.132 6.112 7.57l-1.15 1.538c-2.04 2.727-4.073 5.447-6.118 8.137-2.157-2.592-4.215-5.198-6.17-7.768 2.412-3.004 4.852-6.16 7.326-9.477zm-15.54 34.86c-2.182 2.406-4.413 4.72-6.708 6.92-2.328-2.552-4.628-5.175-6.9-7.87 2.314-2.21 4.54-4.498 6.68-6.828 2.232 2.623 4.543 5.222 6.927 7.772zM73.79 73.36l.343-.407c2.064-2.28 4.14-4.662 6.233-7.156 2.113 2.52 4.212 4.93 6.298 7.232l.274.322c-2.16 2.77-4.348 5.485-6.572 8.12-2.227-2.634-4.414-5.348-6.575-8.117zm6.575 17.51c2.29 2.292 4.642 4.53 7.07 6.69-2.33 2.443-4.686 4.817-7.07 7.124-2.386-2.307-4.744-4.68-7.073-7.122 2.427-2.16 4.78-4.4 7.073-6.693zm4.307-4.455c2.384-2.55 4.695-5.15 6.928-7.777 2.138 2.328 4.364 4.616 6.676 6.827-2.27 2.693-4.57 5.315-6.898 7.867-2.295-2.198-4.526-4.512-6.706-6.918zm-6.197-35.18c1.35.003 3.137-.01 5.18-.032-.433.607-.862 1.205-1.288 1.794-.65.91-1.32 1.838-2 2.773-.68-.934-1.354-1.862-2.005-2.772-.42-.58-.842-1.17-1.27-1.766.503.003.968.005 1.383.005zm-9.343.32c2.476 3.32 4.915 6.474 7.324 9.478-1.954 2.57-4.013 5.177-6.17 7.77-2.046-2.69-4.08-5.412-6.118-8.14l-1.15-1.536c2.056-2.437 4.095-4.958 6.114-7.57zm-8.026-.58c-.745.883-1.49 1.758-2.236 2.622l-2.037-2.71c1.34.03 2.784.058 4.273.088zm-11.916 1.44c1.532 2.195 3.127 4.446 4.774 6.727-1.032 1.138-2.064 2.257-3.098 3.362-.705-4.22-1.285-7.723-1.676-10.09zm5.02 32.85l-.425-2.327.97 1.715-.545.612zm-1.936-14.358c1.956-1.977 3.897-4.02 5.82-6.142 2.334 3.113 4.77 6.257 7.31 9.386-2.254 2.36-4.502 4.596-6.752 6.718-2.023-2.507-6.253-9.216-6.378-9.957zm5.49 31.98c-.65-3.675-1.324-7.556-2-11.478.637-.528 1.27-1.05 1.895-1.59 2.34 2.662 4.72 5.22 7.102 7.67-2.257 1.92-4.588 3.723-7.002 5.393zm3.975 17.767s-.3.398-.57.68c-.02-.08-.04-.155-.054-.23-.383-1.906-.824-4.226-1.31-6.846 1.537 1.445 3.086 2.87 4.647 4.275-.92.724-1.83 1.432-2.72 2.12zm4.81 2.96c.64-.505 1.28-1.013 1.92-1.526.8.696 1.6 1.39 2.41 2.077-1.64-.163-3.09-.356-4.33-.552zm2.64-8.853c-2.62-2.53-5.198-5.112-7.738-7.752 2.49-1.76 4.91-3.618 7.27-5.55 2.535 2.473 5.067 4.83 7.573 7.076-1.767 1.633-3.55 3.23-5.345 4.79-.592.486-1.18.967-1.765 1.442zm11.7 9.8c-.346.007-.695.01-1.044.015-2.32-2.03-4.614-4.1-6.876-6.213.758-.644 1.514-1.293 2.267-1.95 1.683-1.382 3.393-2.82 5.125-4.305 1.745 1.5 3.47 2.947 5.166 4.342.74.642 1.48 1.277 2.223 1.91-2.256 2.107-4.543 4.172-6.86 6.2zm9.22-.62c.72-.61 1.433-1.23 2.147-1.85.566.458 1.135.91 1.705 1.36-1.136.165-2.432.335-3.85.49zm1.424-9.176c-.57-.46-1.146-.93-1.722-1.406-1.808-1.573-3.604-3.178-5.383-4.823 2.505-2.244 5.036-4.602 7.57-7.074 2.36 1.93 4.78 3.79 7.27 5.55-2.54 2.64-5.117 5.226-7.734 7.755zm7.786 6.315c-.185-.22-.334-.42-.334-.42-.893-.69-1.8-1.397-2.72-2.12 1.452-1.308 2.896-2.633 4.327-3.976-.47 2.48-.9 4.687-1.273 6.514zm3.456-18.32c-2.348-1.633-4.617-3.394-6.815-5.266 2.386-2.45 4.764-5.003 7.11-7.67.58.5 1.167.99 1.757 1.48-.694 3.913-1.385 7.784-2.05 11.457zm3.096-17.49l-.545-.613.97-1.715-.425 2.328zm-3.8-4.402c-2.25-2.122-4.497-4.356-6.75-6.71 2.54-3.13 4.977-6.276 7.312-9.39 1.906 2.105 3.83 4.13 5.77 6.092-.138.793-4.34 7.536-6.333 10.006zm7.775-18.37c-1.03-1.102-2.058-2.216-3.085-3.35 1.666-2.303 3.276-4.577 4.823-6.794-.405 2.366-1.008 5.89-1.74 10.144z"
              id="diagram-bin"></path>
        <path d="M114.31 61.395L98.25 45.298c-1.713-1.717-4.04-2.683-6.465-2.683h-46.3c-5.044 0-9.133 4.09-9.133 9.133v72.49c0 5.044 4.09 9.133 9.132 9.133h62.36c5.043 0 9.133-4.084 9.133-9.13V67.848c-.002-2.418-.96-4.737-2.667-6.45zm-6.467 62.844h-62.36V51.743h46.303l16.058 16.098v56.393zM54.875 55.475c-2.522 0-4.566 2.045-4.566 4.566V72.03c0 2.522 2.04 4.567 4.56 4.567 2.523 0 4.567-2.045 4.567-4.567V60.043c0-2.52-2.044-4.566-4.566-4.566zm13.89 0c-2.522 0-4.567 2.045-4.567 4.566V72.03c0 2.522 2.045 4.567 4.567 4.567 2.522 0 4.566-2.045 4.566-4.567V60.043c0-2.52-2.04-4.566-4.56-4.566zm13.888 0c-2.52 0-4.566 2.045-4.566 4.566V72.03c0 2.522 2.045 4.567 4.566 4.567 2.522 0 4.567-2.045 4.567-4.567V60.043c0-2.52-2.045-4.566-4.567-4.566zm13.89 21.12c2.522 0 4.567-2.044 4.567-4.566v-3.99c0-2.522-2.045-4.567-4.567-4.567-2.522 0-4.566 2.045-4.566 4.567v3.995c0 2.524 2.044 4.57 4.566 4.57z"
              id="diagram-cache"></path>
        <path d="M127.128 135.19H36.996V45.056h90.132v90.132zm-82.774-7.36h75.416V52.416H44.354v75.416zm20.233-53.342h7.358v57.022h-7.358zM40.675 68.97h82.774v7.357H40.67zM66.427 98.4h57.022v7.358H66.422z"
              id="diagram-template"></path>
        <path d="M36.352 68.593v55.405c0 7.533 6.1 13.633 13.627 13.633h64.15c7.532 0 13.64-6.094 13.64-13.63V68.595c0-7.523-6.107-13.626-13.64-13.626h-2.796v-8.202c0-2.293-1.86-4.15-4.15-4.15s-4.155 1.857-4.155 4.15v16.7c0 2.05-1.657 3.705-3.703 3.705-2.037 0-3.687-1.656-3.687-3.704v-8.5h-7.19v-8.2c0-2.294-1.86-4.15-4.15-4.15-2.3 0-4.15 1.856-4.15 4.15v16.7c0 2.048-1.65 3.704-3.703 3.704-2.037 0-3.688-1.658-3.688-3.706v-8.5h-7.1v-8.2c0-2.294-1.865-4.15-4.15-4.15-2.3 0-4.156 1.856-4.156 4.15v16.7c0 2.048-1.652 3.704-3.7 3.704-2.042 0-3.693-1.657-3.693-3.705v-8.5c-7.515.01-13.61 6.105-13.61 13.627zm81.503 53.72c0 2.425-1.966 4.39-4.39 4.39h-62.23c-2.424 0-4.395-1.965-4.395-4.39v-35.72h71.015v35.723zm-4.947-29.247v5.54h-3.218v22.145h-5.42V98.61h-3.207v-5.54h11.845m-13.08 0v27.685h-4.752l-2.82-12.585v12.586h-4.53v-27.69h4.53l3.04 12.467V93.066h4.53m-23.07 0h9.037v5.54h-3.618v5.25h3.387v5.267h-3.387v6.087h3.98v5.54h-9.4V93.067m-.927 0l-2.755 27.685h-8.228l-3.128-27.684h5.716c.66 7.626 1.133 14.073 1.417 19.34.283-5.324.58-10.055.888-14.193l.373-5.147h5.72m-23.843 0h9.04v5.54h-3.62v5.25h3.387v5.267H57.41v6.087h3.977v5.54h-9.4V93.067"
              id="diagram-event"></path>
    </defs>

    <g transform="translate(-36.352 -225.593)">
        <text x="106.692" y="367.362" class="label">ServiceWorker</text>
        <text x="251.902" y="368.362" class="label">sync</text>
        <text x="408" y="369.362" class="label">Network</text>
        <text x="562.326" y="371.177" class="label">Cache</text>
        <use xlink:href="#diagram-sw" width="549.929" height="342.978" transform="translate(19.106 188.308)"></use>
        <use transform="translate(172 188)" height="342.978" width="549.929" xlink:href="#diagram-event"></use>
        <use xlink:href="#diagram-network" width="549.929" height="342.978" transform="translate(326 192)"></use>
        <use transform="translate(485.049 194.815)" height="342.978" width="549.929" xlink:href="#diagram-cache"></use>
        <g>
            <g style="display: inline;">
                <g class="joiner" style="display: inline;">
                    <path d="M160.126 280.362h37.956"
                          style="stroke-dasharray: 37.956, 37.956; stroke-dashoffset: 0; transition: stroke-dashoffset 0.25304s ease-in-out 0s;"></path>
                    <path d="M190.188 275.633l10.898 4.51-10.857 5"
                          style="stroke-dasharray: 23.7473, 23.7473; stroke-dashoffset: 0; transition: stroke-dashoffset 0.158316s ease-in-out 0.35304s;"></path>
                </g>
                <text x="160.128" y="96.32" class="fade-in state-label" transform="translate(18 175)"
                      style="display: inline; opacity: 1; transition: opacity 0.6s cubic-bezier(0.455, 0.03, 0.515, 0.955) 0s;">
                    1
                </text>
            </g>
            <g style="display: inline;">
                <text class="fade-in state-label" x="382.572" y="83.597"
                      transform="translate(18 175) translate(-70.315 1.985)"
                      style="display: inline; opacity: 1; transition: opacity 0.6s cubic-bezier(0.455, 0.03, 0.515, 0.955) 1.21136s;">
                    2
                </text>
                <g class="joiner" style="display: inline;">
                    <path d="M304.677 269.67l50.057.46-4.882-3.546"
                          style="stroke-dasharray: 56.093, 56.093; stroke-dashoffset: 0; transition: stroke-dashoffset 0.373953s ease-in-out 1.21136s;"></path>
                </g>
                <g class="joiner" style="display: inline;">
                    <path d="M304.677 287.67l50.057.46-5.256 3.436"
                          style="stroke-dasharray: 56.3386, 56.3386; stroke-dashoffset: 0; transition: stroke-dashoffset 0.375591s ease-in-out 1.21136s;"></path>
                </g>
                <g class="joiner" style="display: inline;">
                    <path d="M304.677 281.67l50.057.46"
                          style="stroke-dasharray: 50.0591, 50.0591; stroke-dashoffset: 0; transition: stroke-dashoffset 0.333727s ease-in-out 1.21136s;"></path>
                </g>
                <g class="joiner" style="display: inline;">
                    <path d="M304.677 275.67l50.057.46"
                          style="stroke-dasharray: 50.0591, 50.0591; stroke-dashoffset: 0; transition: stroke-dashoffset 0.333727s ease-in-out 1.21136s;"></path>
                </g>
            </g>
            <g style="display: inline;">
                <text y="83.597" x="382.572" class="fade-in state-label"
                      transform="translate(18 175) translate(85.685 1.985)"
                      style="display: inline; opacity: 1; transition: opacity 0.6s cubic-bezier(0.455, 0.03, 0.515, 0.955) 2.28695s;">
                    3
                </text>
                <g class="joiner" style="display: inline;">
                    <path d="M460.677 269.67l50.057.46-4.882-3.546"
                          style="stroke-dasharray: 56.093, 56.093; stroke-dashoffset: 0; transition: stroke-dashoffset 0.373953s ease-in-out 2.28695s;"></path>
                </g>
                <g class="joiner" style="display: inline;">
                    <path d="M460.677 287.67l50.057.46-5.256 3.436"
                          style="stroke-dasharray: 56.3386, 56.3386; stroke-dashoffset: 0; transition: stroke-dashoffset 0.375591s ease-in-out 2.28695s;"></path>
                </g>
                <g class="joiner" style="display: inline;">
                    <path d="M460.677 281.67l50.057.46"
                          style="stroke-dasharray: 50.0591, 50.0591; stroke-dashoffset: 0; transition: stroke-dashoffset 0.333727s ease-in-out 2.28695s;"></path>
                </g>
                <g class="joiner" style="display: inline;">
                    <path d="M460.677 275.67l50.057.46"
                          style="stroke-dasharray: 50.0591, 50.0591; stroke-dashoffset: 0; transition: stroke-dashoffset 0.333727s ease-in-out 2.28695s;"></path>
                </g>
            </g>
        </g>
    </g>
</svg>
